[Header]
FileType HTR
DataType HTRS
FileVersion 1
NumSegments 64
NumFrames 4
DataFrameRate 30
EulerRotationOrder ZYX
CalibrationUnits mm
RotationUnits Degrees
GlobalAxisofGravity Y
BoneLengthAxis Y
ScaleFactor 1.0
[SegmentNames&Hierarchy]
Hips	GLOBAL
Spine	Hips
Spine1	Spine
Spine2	Spine1
Neck	Spine2
Head	Neck
LeftEye	Head
RightEye	Head
LeftShoulder	Spine2
LeftArm	LeftShoulder
LeftForeArm	LeftArm
LeftHand	LeftForeArm
LeftHandThumb1	LeftHand
LeftHandThumb2	LeftHandThumb1
LeftHandThumb3	LeftHandThumb2
LeftHandThumb4	LeftHandThumb3
LeftHandIndex1	LeftHand
LeftHandIndex2	LeftHandIndex1
LeftHandIndex3	LeftHandIndex2
LeftHandIndex4	LeftHandIndex3
LeftHandMiddle1	LeftHand
LeftHandMiddle2	LeftHandMiddle1
LeftHandMiddle3	LeftHandMiddle2
LeftHandMiddle4	LeftHandMiddle3
LeftHandRing1	LeftHand
LeftHandRing2	LeftHandRing1
LeftHandRing3	LeftHandRing2
LeftHandRing4	LeftHandRing3
LeftHandPinky1	LeftHand
LeftHandPinky2	LeftHandPinky1
LeftHandPinky3	LeftHandPinky2
LeftHandPinky4	LeftHandPinky3
RightShoulder	Spine2
RightArm	RightShoulder
RightForeArm	RightArm
RightHand	RightForeArm
RightHandPinky1	RightHand
RightHandPinky2	RightHandPinky1
RightHandPinky3	RightHandPinky2
RightHandPinky4	RightHandPinky3
RightHandRing1	RightHand
RightHandRing2	RightHandRing1
RightHandRing3	RightHandRing2
RightHandRing4	RightHandRing3
RightHandMiddle1	RightHand
RightHandMiddle2	RightHandMiddle1
RightHandMiddle3	RightHandMiddle2
RightHandMiddle4	RightHandMiddle3
RightHandIndex1	RightHand
RightHandIndex2	RightHandIndex1
RightHandIndex3	RightHandIndex2
RightHandIndex4	RightHandIndex3
RightHandThumb1	RightHand
RightHandThumb2	RightHandThumb1
RightHandThumb3	RightHandThumb2
RightHandThumb4	RightHandThumb3
LeftUpLeg	Hips
LeftLeg	LeftUpLeg
LeftFoot	LeftLeg
LeftToeBase	LeftFoot
RightUpLeg	Hips
RightLeg	RightUpLeg
RightFoot	RightLeg
RightToeBase	RightFoot
[BasePosition]
Hips	0	0	0	0	0	0	1
Spine	0	0	0	0	0	0	1
Spine1	0	0	0	0	0	0	1
Spine2	0	0	0	0	0	0	1
Neck	0	0	0	0	0	0	1
Head	0	0	0	0	0	0	1
LeftEye	0	0	0	0	0	0	1
RightEye	0	0	0	0	0	0	1
LeftShoulder	0	0	0	0	0	0	1
LeftArm	0	0	0	0	0	0	1
LeftForeArm	0	0	0	0	0	0	1
LeftHand	0	0	0	0	0	0	1
LeftHandThumb1	0	0	0	0	0	0	1
LeftHandThumb2	0	0	0	0	0	0	1
LeftHandThumb3	0	0	0	0	0	0	1
LeftHandThumb4	0	0	0	0	0	0	1
LeftHandIndex1	0	0	0	0	0	0	1
LeftHandIndex2	0	0	0	0	0	0	1
LeftHandIndex3	0	0	0	0	0	0	1
LeftHandIndex4	0	0	0	0	0	0	1
LeftHandMiddle1	0	0	0	0	0	0	1
LeftHandMiddle2	0	0	0	0	0	0	1
LeftHandMiddle3	0	0	0	0	0	0	1
LeftHandMiddle4	0	0	0	0	0	0	1
LeftHandRing1	0	0	0	0	0	0	1
LeftHandRing2	0	0	0	0	0	0	1
LeftHandRing3	0	0	0	0	0	0	1
LeftHandRing4	0	0	0	0	0	0	1
LeftHandPinky1	0	0	0	0	0	0	1
LeftHandPinky2	0	0	0	0	0	0	1
LeftHandPinky3	0	0	0	0	0	0	1
LeftHandPinky4	0	0	0	0	0	0	1
RightShoulder	0	0	0	0	0	0	1
RightArm	0	0	0	0	0	0	1
RightForeArm	0	0	0	0	0	0	1
RightHand	0	0	0	0	0	0	1
RightHandPinky1	0	0	0	0	0	0	1
RightHandPinky2	0	0	0	0	0	0	1
RightHandPinky3	0	0	0	0	0	0	1
RightHandPinky4	0	0	0	0	0	0	1
RightHandRing1	0	0	0	0	0	0	1
RightHandRing2	0	0	0	0	0	0	1
RightHandRing3	0	0	0	0	0	0	1
RightHandRing4	0	0	0	0	0	0	1
RightHandMiddle1	0	0	0	0	0	0	1
RightHandMiddle2	0	0	0	0	0	0	1
RightHandMiddle3	0	0	0	0	0	0	1
RightHandMiddle4	0	0	0	0	0	0	1
RightHandIndex1	0	0	0	0	0	0	1
RightHandIndex2	0	0	0	0	0	0	1
RightHandIndex3	0	0	0	0	0	0	1
RightHandIndex4	0	0	0	0	0	0	1
RightHandThumb1	0	0	0	0	0	0	1
RightHandThumb2	0	0	0	0	0	0	1
RightHandThumb3	0	0	0	0	0	0	1
RightHandThumb4	0	0	0	0	0	0	1
LeftUpLeg	0	0	0	0	0	0	1
LeftLeg	0	0	0	0	0	0	1
LeftFoot	0	0	0	0	0	0	1
LeftToeBase	0	0	0	0	0	0	1
RightUpLeg	0	0	0	0	0	0	1
RightLeg	0	0	0	0	0	0	1
RightFoot	0	0	0	0	0	0	1
RightToeBase	0	0	0	0	0	0	1
[Hips]
493	137.4279022	950.5960083	-276.0036011	-9.198950768	31.55282974	-363.8801575	1.0
494	137.9343262	908.1181641	-273.4450989	-9.748483658	29.92899704	-366.2280273	1.0
495	136.4169464	862.8076782	-270.0965271	-10.24971867	28.23362732	-367.7374878	1.0
496	134.0813904	823.6383057	-266.7895813	-10.33778858	26.7895565	-367.7163086	1.0
[Spine]
493	0	101.8159943	1.315000057	13.80882454	-5.423941612	8.345341682	1.0
494	0	101.8159943	1.315000057	11.98178673	-2.341060877	11.72062492	1.0
495	0	101.8159943	1.315000057	11.10391235	1.624886274	13.67416954	1.0
496	0	101.8159943	1.315000057	10.17180157	6.079546452	15.40744495	1.0
[Spine1]
493	0	100.8349991	-10.00800037	1.556301951	-0.2071816325	-5.477857113	1.0
494	0	100.8349991	-10.00800037	1.557716966	0.1990123689	-5.075843811	1.0
495	0	100.8349991	-10.00800037	2.029999733	0.7289074659	-4.257849693	1.0
496	0	100.8349991	-10.00800037	3.827032089	1.507011533	-4.701547146	1.0
[Spine2]
493	0	91	-13.73399925	1.533855796	-0.3785360456	-5.477577686	1.0
494	0	91	-13.73399925	1.567418098	0.05064143986	-5.07943821	1.0
495	0	91	-13.73399925	2.083475351	0.5982046723	-4.251649857	1.0
496	0	91	-13.73399925	3.94902277	1.335827708	-4.656534672	1.0
[Neck]
493	0	166.7169952	-25.16200066	1.602148175	8.263786316	-2.428850174	1.0
494	0	166.7169952	-25.16200066	1.137807131	8.053375244	-2.276492119	1.0
495	0	166.7169952	-25.16200066	-0.4064792395	7.889380932	-2.388737679	1.0
496	0	166.7169952	-25.16200066	-3.458007097	7.66093111	-2.375977993	1.0
[Head]
493	0	96.17900085	16.84999847	4.992963314	38.41720581	-2.188003778	1.0
494	0	96.17900085	16.84999847	6.126428127	37.50402832	-1.835072041	1.0
495	0	96.17900085	16.84999847	6.248645782	36.56414795	-2.089281082	1.0
496	0	96.17900085	16.84999847	5.497370243	35.48865128	-2.331319571	1.0
[LeftEye]
493	30.6760006	64.09500122	92.83599854	0	0	0	1.0
494	30.6760006	64.09500122	92.83599854	0	0	0	1.0
495	30.6760006	64.09500122	92.83599854	0	0	0	1.0
496	30.6760006	64.09500122	92.83599854	0	0	0	1.0
[RightEye]
493	-30.6760006	64.09500122	92.83499908	0	0	0	1.0
494	-30.6760006	64.09500122	92.83499908	0	0	0	1.0
495	-30.6760006	64.09500122	92.83499908	0	0	0	1.0
496	-30.6760006	64.09500122	92.83499908	0	0	0	1.0
[LeftShoulder]
493	45.70400238	109.4599991	-26.28000069	0.2283823937	1.752751946	-4.590996265	1.0
494	45.70400238	109.4599991	-26.28000069	0.1053592265	2.743809223	-6.244451046	1.0
495	45.70400238	109.4599991	-26.28000069	-0.1790448129	4.587479115	-8.62885952	1.0
496	45.70400238	109.4599991	-26.28000069	-0.7915128469	8.096980095	-9.802708626	1.0
[LeftArm]
493	105.923996	-5.24600029	-22.32099915	1.416085601	29.73453903	-7.8995924	1.0
494	105.923996	-5.24600029	-22.32099915	-3.366256237	36.83778763	-17.43784142	1.0
495	105.923996	-5.24600029	-22.32099915	-8.281301498	43.14429855	-27.5166111	1.0
496	105.923996	-5.24600029	-22.32099915	-12.94750595	46.29944229	-38.82574081	1.0
[LeftForeArm]
493	278.414978	-0.0009999999311	0	3.224834245e-06	-38.60084152	-0.0002068104804	1.0
494	278.414978	-0.0009999999311	0	-1.617512225e-06	-40.02871704	-0.000203131116	1.0
495	278.414978	-0.0009999999311	0	-4.840358997e-06	-43.15693283	-0.0002001949033	1.0
496	278.414978	-0.0009999999311	0	5.279530342e-06	-47.9274025	-0.0002000574023	1.0
[LeftHand]
493	283.2879944	0	0	0.6989835501	21.54159164	23.47382545	1.0
494	283.2879944	0	0	-8.687961578	23.97989845	23.31358528	1.0
495	283.2879944	0	0	-20.66437721	30.05097389	22.22335625	1.0
496	283.2879944	0	0	-34.00490189	40.24940491	20.55779839	1.0
[LeftHandThumb1]
493	24.6609993	-15.75	26.8239994	-6.297387123	2.030345201	16.68983269	1.0
494	24.6609993	-15.75	26.8239994	-8.143911362	-0.1128890663	17.7864418	1.0
495	24.6609993	-15.75	26.8239994	-9.929452896	-2.005475283	18.77995491	1.0
496	24.6609993	-15.75	26.8239994	-11.48966789	-3.690518141	19.53165245	1.0
[LeftHandThumb2]
493	32.29800034	-18.64699936	18.64699936	6.351371288	9.30605793	1.824328303	1.0
494	32.29800034	-18.64699936	18.64699936	8.827167511	13.60960197	3.727241039	1.0
495	32.29800034	-18.64699936	18.64699936	11.31492615	17.67185783	5.86131525	1.0
496	32.29800034	-18.64699936	18.64699936	13.45606613	20.90062714	7.833286285	1.0
[LeftHandThumb3]
493	26.52600098	-15.31499958	15.31499958	-0.2154276669	2.278874159	2.767691851	1.0
494	26.52600098	-15.31499958	15.31499958	0.3793785274	3.359492064	2.78902173	1.0
495	26.52600098	-15.31499958	15.31499958	0.8610412478	4.285261631	2.859499931	1.0
496	26.52600098	-15.31499958	15.31499958	1.256998539	5.077469826	2.966935873	1.0
[LeftHandThumb4]
493	19.54599953	-11.28499985	11.28499985	0	0	0	1.0
494	19.54599953	-11.28499985	11.28499985	0	0	0	1.0
495	19.54599953	-11.28499985	11.28499985	0	0	0	1.0
496	19.54599953	-11.28499985	11.28499985	0	0	0	1.0
[LeftHandIndex1]
493	91.09299469	-5.170999527	22.60099792	-0.4176615477	-6.774960995	20.49415207	1.0
494	91.09299469	-5.170999527	22.60099792	-0.5149651766	-6.987018108	22.68746185	1.0
495	91.09299469	-5.170999527	22.60099792	-0.5977970362	-7.395833969	24.45920563	1.0
496	91.09299469	-5.170999527	22.60099792	-0.6364631653	-8.003804207	25.30568886	1.0
[LeftHandIndex2]
493	36.76399994	0	0	2.093060402e-06	4.050709322e-06	-1.155658629e-05	1.0
494	36.76399994	0	0	9.61451974e-07	-8.569282954e-07	-2.312673132e-05	1.0
495	36.76399994	0	0	3.028563015e-06	-3.674333357e-06	-3.667415513e-05	1.0
496	36.76399994	0	0	2.861434496e-06	-3.78674963e-06	-2.378772115e-05	1.0
[LeftHandIndex3]
493	28.83100128	0	0	-0.04340681061	0.7722705603	-6.437536716	1.0
494	28.83100128	0	0	-0.04050042853	0.7458751798	-6.216562748	1.0
495	28.83100128	0	0	-0.0384392105	0.7266684175	-6.055822849	1.0
496	28.83100128	0	0	-0.03715437651	0.7144732475	-5.95389843	1.0
[LeftHandIndex4]
493	23.92700005	0	0	0	0	0	1.0
494	23.92700005	0	0	0	0	0	1.0
495	23.92700005	0	0	0	0	0	1.0
496	23.92700005	0	0	0	0	0	1.0
[LeftHandMiddle1]
493	95.33399963	0	0	-0.4280093312	-1.416892767	20.32861137	1.0
494	95.33399963	0	0	-0.4844843447	-1.282038331	21.66132736	1.0
495	95.33399963	0	0	-0.5239679813	-1.136201143	22.55631065	1.0
496	95.33399963	0	0	-0.5301913619	-1.046288848	22.69657707	1.0
[LeftHandMiddle2]
493	36.98199844	0	0	1.036615949e-08	-7.196082879e-05	2.007985313e-05	1.0
494	36.98199844	0	0	8.837553764e-07	-7.273793017e-05	-9.934769332e-05	1.0
495	36.98199844	0	0	3.284353397e-06	-6.790309999e-05	-8.394000179e-05	1.0
496	36.98199844	0	0	1.137140544e-06	-5.660016905e-05	0.0001099623405	1.0
[LeftHandMiddle3]
493	29.50900078	0	0	-0.02905009687	0.6318691969	-5.263446808	1.0
494	29.50900078	0	0	-0.0269664377	0.6088817716	-5.071436405	1.0
495	29.50900078	0	0	-0.02541996725	0.5912200212	-4.92399931	1.0
496	29.50900078	0	0	-0.02462154627	0.5818237662	-4.845650196	1.0
[LeftHandMiddle4]
493	28.3390007	0	0	0	0	0	1.0
494	28.3390007	0	0	0	0	0	1.0
495	28.3390007	0	0	0	0	0	1.0
496	28.3390007	0	0	0	0	0	1.0
[LeftHandRing1]
493	91.04499817	-0.4390000105	-18.65100098	-0.4994511604	2.579026461	22.52543449	1.0
494	91.04499817	-0.4390000105	-18.65100098	-0.5140538216	3.343514442	23.03622055	1.0
495	91.04499817	-0.4390000105	-18.65100098	-0.5022002459	4.297871113	23.04165649	1.0
496	91.04499817	-0.4390000105	-18.65100098	-0.4596869051	5.210890293	22.39644623	1.0
[LeftHandRing2]
493	31.54000092	0	0	4.293947029e-07	-5.832757779e-06	-3.38267273e-06	1.0
494	31.54000092	0	0	-1.514561632e-06	-6.709844911e-06	2.084042353e-05	1.0
495	31.54000092	0	0	-1.762193733e-06	-8.330289347e-06	1.4260223e-05	1.0
496	31.54000092	0	0	9.342150406e-06	-1.255994175e-05	-3.301631295e-05	1.0
[LeftHandRing3]
493	29.37700081	0	0	-0.02824082412	0.623080194	-5.190077305	1.0
494	29.37700081	0	0	-0.02755148895	0.615447402	-5.126316071	1.0
495	29.37700081	0	0	-0.02709607966	0.6103434563	-5.083622456	1.0
496	29.37700081	0	0	-0.02696485817	0.6087855697	-5.070542812	1.0
[LeftHandRing4]
493	26.47500038	0	0	0	0	0	1.0
494	26.47500038	0	0	0	0	0	1.0
495	26.47500038	0	0	0	0	0	1.0
496	26.47500038	0	0	0	0	0	1.0
[LeftHandPinky1]
493	80.77799988	-4.887000084	-38.06099701	-0.9810250401	11.43654728	34.24187469	1.0
494	80.77799988	-4.887000084	-38.06099701	-0.9238228202	12.90043545	34.05230713	1.0
495	80.77799988	-4.887000084	-38.06099701	-0.8032855392	14.78053761	33.18616486	1.0
496	80.77799988	-4.887000084	-38.06099701	-0.6319295764	16.66447449	31.64001083	1.0
[LeftHandPinky2]
493	36	0	0	0.01824261621	-4.054125786	-0.512275517	1.0
494	36	0	0	0.01693660021	-4.056342602	-0.4937631488	1.0
495	36	0	0	0.01655925438	-4.056975842	-0.4884304106	1.0
496	36	0	0	0.01660696603	-4.056905746	-0.4891452193	1.0
[LeftHandPinky3]
493	21.14200211	0	0	-0.01587669365	0.4673369229	-3.890340328	1.0
494	21.14200211	0	0	-0.01584769413	0.4669599533	-3.88716054	1.0
495	21.14200211	0	0	-0.01583223604	0.4667557776	-3.885439873	1.0
496	21.14200211	0	0	-0.01584705524	0.4669359624	-3.886857748	1.0
[LeftHandPinky4]
493	19.75699997	0	0	0	0	0	1.0
494	19.75699997	0	0	0	0	0	1.0
495	19.75699997	0	0	0	0	0	1.0
496	19.75699997	0	0	0	0	0	1.0
[RightShoulder]
493	-45.70000076	109.4620056	-26.28000069	0.5827038288	5.652023792	-2.170503616	1.0
494	-45.70000076	109.4620056	-26.28000069	0.8966593146	3.504080057	5.14255476	1.0
495	-45.70000076	109.4620056	-26.28000069	0.8101420403	0.8379489779	11.69645977	1.0
496	-45.70000076	109.4620056	-26.28000069	0.7614573836	-0.6440184116	20.14901733	1.0
[RightArm]
493	-105.9280014	-5.248000145	-22.32099915	-48.31999588	19.96450233	0.2292666733	1.0
494	-105.9280014	-5.248000145	-22.32099915	-46.31939316	29.65014076	4.148787022	1.0
495	-105.9280014	-5.248000145	-22.32099915	-40.35112	39.74194336	12.80900574	1.0
496	-105.9280014	-5.248000145	-22.32099915	-31.24110413	48.9228363	21.75619125	1.0
[RightForeArm]
493	-278.414978	0	0	1.818838791e-05	108.4732971	1.403763326e-05	1.0
494	-278.414978	0	0	1.525878906e-05	113.1125412	-1.086446537e-05	1.0
495	-278.414978	0	0	1.55029029e-05	118.065361	-6.22643438e-06	1.0
496	-278.414978	0	0	1.525878906e-05	122.4378662	4.577636719e-05	1.0
[RightHand]
493	-283.2879944	0	0.0009999999311	28.26489639	7.136651993	-19.04530716	1.0
494	-283.2879944	0	0.0009999999311	25.79427719	10.2231884	-22.4950428	1.0
495	-283.2879944	0	0.0009999999311	21.92545509	16.16615486	-26.30009079	1.0
496	-283.2879944	0	0.0009999999311	18.76927757	24.307724	-29.46212959	1.0
[RightHandPinky1]
493	-80.76699829	-4.885000229	-38.06000137	-0.5510028601	-8.580823898	-25.55822754	1.0
494	-80.76699829	-4.885000229	-38.06000137	-0.6513459682	-7.637228489	-27.07985878	1.0
495	-80.76699829	-4.885000229	-38.06000137	-0.7278662324	-7.001444817	-28.23379326	1.0
496	-80.76699829	-4.885000229	-38.06000137	-0.773866713	-6.673747063	-28.93014145	1.0
[RightHandPinky2]
493	-36	0	0.0009999999311	-1.433832288	-4.231369495	37.54769897	1.0
494	-36	0	0.0009999999311	-0.9476109743	-3.481685162	30.14624405	1.0
495	-36	0	0.0009999999311	-0.4567056298	-2.476149321	20.87484932	1.0
496	-36	0	0.0009999999311	-0.1586148143	-1.476726651	12.27374935	1.0
[RightHandPinky3]
493	-21.14200211	0	0	-0.07581448555	-1.024098635	8.46786499	1.0
494	-21.14200211	0	0	-0.04092017189	-0.7463478446	6.160856724	1.0
495	-21.14200211	0	0	-0.01415005419	-0.4460120499	3.67644906	1.0
496	-21.14200211	0	0	-0.002890587784	-0.2005047351	1.651893735	1.0
[RightHandPinky4]
493	-19.75699997	0	0	0	0	0	1.0
494	-19.75699997	0	0	0	0	0	1.0
495	-19.75699997	0	0	0	0	0	1.0
496	-19.75699997	0	0	0	0	0	1.0
[RightHandRing1]
493	-91.03599548	-0.4390000105	-18.65100098	-0.2679426968	-0.2434574366	-16.10218048	1.0
494	-91.03599548	-0.4390000105	-18.65100098	-0.2867867947	0.1524923742	-16.61216927	1.0
495	-91.03599548	-0.4390000105	-18.65100098	-0.3063830137	0.3264454007	-17.15107918	1.0
496	-91.03599548	-0.4390000105	-18.65100098	-0.3292351365	0.4073211253	-17.78089333	1.0
[RightHandRing2]
493	-31.54000092	0	0	-0.1936695725	-1.635457158	13.60204506	1.0
494	-31.54000092	0	0	-0.1012952775	-1.161002874	9.615781784	1.0
495	-31.54000092	0	0	-0.02295782976	-0.5583340526	4.602984428	1.0
496	-31.54000092	0	0	-0.0002065021254	-0.05341495946	0.439968884	1.0
[RightHandRing3]
493	-29.37700081	0	0	-4.128509521	-0.789634943	6.514895916	1.0
494	-29.37700081	0	0	-3.343962669	-0.5288184881	4.355008125	1.0
495	-29.37700081	0	0	-2.429680109	-0.232398957	1.91122961	1.0
496	-29.37700081	0	0	-1.571395874	0.02251469344	-0.1917337179	1.0
[RightHandRing4]
493	-26.47500038	0	0	0	0	0	1.0
494	-26.47500038	0	0	0	0	0	1.0
495	-26.47500038	0	0	0	0	0	1.0
496	-26.47500038	0	0	0	0	0	1.0
[RightHandMiddle1]
493	-95.32500458	0	0	-0.01952131838	7.858649254	-8.063483238	1.0
494	-95.32500458	0	0	-0.01299840584	7.777219296	-7.652348518	1.0
495	-95.32500458	0	0	-0.0175402388	7.554697037	-7.713533878	1.0
496	-95.32500458	0	0	-0.03507234901	7.372488976	-8.514638901	1.0
[RightHandMiddle2]
493	-36.98199844	0	0	-0.02843580022	-0.6317597628	5.211365223	1.0
494	-36.98199844	0	0	-0.01489583775	-0.4438423812	3.659104586	1.0
495	-36.98199844	0	0	-0.002849537879	-0.1980485022	1.631546736	1.0
496	-36.98199844	0	0	-2.985920673e-06	-0.006212411448	0.05115077645	1.0
[RightHandMiddle3]
493	-29.50900078	0	0	-3.222613096	-0.1436665058	1.164981127	1.0
494	-29.50900078	0	0	-2.53105545	-0.009658235125	0.06029069424	1.0
495	-29.50900078	0	0	-1.727453232	0.139018029	-1.162058115	1.0
496	-29.50900078	0	0	-0.9829851985	0.2644238174	-2.197976828	1.0
[RightHandMiddle4]
493	-28.3390007	0	0.0009999999311	0	0	0	1.0
494	-28.3390007	0	0.0009999999311	0	0	0	1.0
495	-28.3390007	0	0.0009999999311	0	0	0	1.0
496	-28.3390007	0	0.0009999999311	0	0	0	1.0
[RightHandIndex1]
493	-91.08300018	-5.167999744	22.60099792	0.3037439287	16.82372665	4.696383476	1.0
494	-91.08300018	-5.167999744	22.60099792	0.271318078	16.24443054	6.150452137	1.0
495	-91.08300018	-5.167999744	22.60099792	0.2423727959	15.59077549	6.594984531	1.0
496	-91.08300018	-5.167999744	22.60099792	0.2332747579	15.07867813	5.504975319	1.0
[RightHandIndex2]
493	-36.76399994	0	0	1.783743414e-06	-0.003742964473	0.03083151206	1.0
494	-36.76399994	0	0	-9.631074136e-06	-0.003384387121	0.02785434015	1.0
495	-36.76399994	0	0	-3.588851314e-06	-0.001994349295	0.01639968157	1.0
496	-36.76399994	0	0	-4.446961157e-06	-0.0006812592619	0.005607197527	1.0
[RightHandIndex3]
493	-28.83100128	0	0	-0.01206450444	0.4095446169	-3.375648737	1.0
494	-28.83100128	0	0	-0.01550661027	0.4639970958	-3.825118542	1.0
495	-28.83100128	0	0	-0.0189727582	0.5137229562	-4.235757828	1.0
496	-28.83100128	0	0	-0.0211448241	0.5419946313	-4.469389439	1.0
[RightHandIndex4]
493	-23.92700005	0	0	0	0	0	1.0
494	-23.92700005	0	0	0	0	0	1.0
495	-23.92700005	0	0	0	0	0	1.0
496	-23.92700005	0	0	0	0	0	1.0
[RightHandThumb1]
493	-24.64799881	-15.72700024	26.82600021	-1.286728263	-10.9078598	-16.25581932	1.0
494	-24.64799881	-15.72700024	26.82600021	0.2513968349	-11.1996069	-14.93741226	1.0
495	-24.64799881	-15.72700024	26.82600021	1.508213758	-11.53500652	-13.70640182	1.0
496	-24.64799881	-15.72700024	26.82600021	1.890581965	-11.55013943	-12.85449123	1.0
[RightHandThumb2]
493	-32.29800034	-18.64699936	18.64699936	2.050285339	0.3251261413	1.708435893	1.0
494	-32.29800034	-18.64699936	18.64699936	2.065382481	0.3275617659	1.719418526	1.0
495	-32.29800034	-18.64699936	18.64699936	2.08690834	0.3431503177	1.725834727	1.0
496	-32.29800034	-18.64699936	18.64699936	2.114980698	0.3491379619	1.709093451	1.0
[RightHandThumb3]
493	-26.52600098	-15.31399918	15.31399918	-5.043658733	5.950183392	-3.386673689	1.0
494	-26.52600098	-15.31399918	15.31399918	-5.54668951	6.683074474	-3.598077774	1.0
495	-26.52600098	-15.31399918	15.31399918	-5.922059059	7.214498043	-3.763536453	1.0
496	-26.52600098	-15.31399918	15.31399918	-5.945039272	7.216061115	-3.776252747	1.0
[RightHandThumb4]
493	-19.54599953	-11.28499985	11.28499985	0	0	0	1.0
494	-19.54599953	-11.28499985	11.28499985	0	0	0	1.0
495	-19.54599953	-11.28499985	11.28499985	0	0	0	1.0
496	-19.54599953	-11.28499985	11.28499985	0	0	0	1.0
[LeftUpLeg]
493	82.07800293	-67.51699829	-15.99599934	-2.247280359	18.61158752	-4.859781265	1.0
494	82.07800293	-67.51699829	-15.99599934	-1.377228379	16.37969971	-8.484437943	1.0
495	82.07800293	-67.51699829	-15.99599934	-1.233735681	13.18764019	-10.42645168	1.0
496	82.07800293	-67.51699829	-15.99599934	-1.247096896	15.48977947	-10.51090813	1.0
[LeftLeg]
493	0	-443.7049866	2.845999956	49.56270218	5.101721764	-8.932775497	1.0
494	0	-443.7049866	2.845999956	46.05728149	5.737879753	-8.429502487	1.0
495	0	-443.7049866	2.845999956	47.29170227	8.924606323	-5.049619198	1.0
496	0	-443.7049866	2.845999956	50.27430344	5.437668324	-8.964959145	1.0
[LeftFoot]
493	0	-444.2789917	-29.8219986	-6.057481766	18.26071167	-4.38344574	1.0
494	0	-444.2789917	-29.8219986	-20.4912281	30.1841259	1.685569286	1.0
495	0	-444.2789917	-29.8219986	-40.09377289	33.82579803	1.352034807	1.0
496	0	-444.2789917	-29.8219986	-54.14110184	35.89215851	-1.3116436	1.0
[LeftToeBase]
493	0	-87.28699493	107.1060028	-25.1749115	1.698468566	4.487447262	1.0
494	0	-87.28699493	107.1060028	-24.35251617	1.175575376	2.42698884	1.0
495	0	-87.28699493	107.1060028	-12.61380863	-0.1150708646	-0.25068748	1.0
496	0	-87.28699493	107.1060028	-3.999027729	-2.19714002e-05	-1.648256443e-06	1.0
[RightUpLeg]
493	-82.07800293	-67.51699829	-15.99599934	-26.2759285	-22.34978676	13.62762928	1.0
494	-82.07800293	-67.51699829	-15.99599934	-27.38855362	-22.01934052	19.14590836	1.0
495	-82.07800293	-67.51699829	-15.99599934	-27.34078217	-19.66009331	22.88197708	1.0
496	-82.07800293	-67.51699829	-15.99599934	-27.9758358	-19.09251976	24.25984764	1.0
[RightLeg]
493	0	-443.7049866	2.861999989	55.76246262	-13.39745045	-2.231261253	1.0
494	0	-443.7049866	2.861999989	56.87998581	-13.62375164	-2.694082737	1.0
495	0	-443.7049866	2.861999989	59.08525085	-13.81297874	-3.895093203	1.0
496	0	-443.7049866	2.861999989	63.52438354	-13.60160923	-5.209766388	1.0
[RightFoot]
493	0	-444.2770081	-29.83799934	-7.48409462	-21.65350533	9.390928268	1.0
494	0	-444.2770081	-29.83799934	-16.33031654	-23.49709511	5.862541199	1.0
495	0	-444.2770081	-29.83799934	-31.55421066	-23.63275337	0.7993988991	1.0
496	0	-444.2770081	-29.83799934	-42.77400589	-22.01491928	-0.3264240921	1.0
[RightToeBase]
493	0	-87.28699493	107.1060028	-16.86999893	-1.371995449	-6.305729389	1.0
494	0	-87.28699493	107.1060028	-18.85358429	-1.166685462	-3.27848196	1.0
495	0	-87.28699493	107.1060028	-9.044143677	0.109449394	0.365149945	1.0
496	0	-87.28699493	107.1060028	-0.5358284116	2.581268518e-06	2.721719454e-07	1.0
[EndOfFile]
